<svg width="95" height="26" viewBox="0 0 95 26" fill="none" xmlns="http://www.w3.org/2000/svg">
<path d="M67.0566 12.9735C67.0566 5.80843 72.8651 0 80.0301 0H81.0281C88.7443 0 94.9995 6.25523 94.9995 13.9714V25.947H80.0301C72.8651 25.947 67.0566 20.1385 67.0566 12.9735Z" fill="#E74B2E"/>
<path d="M84.7358 19.742H82.8483L81.3059 15.6626H75.1359L73.6848 19.742H71.7871L77.3685 5.18994H79.1342L84.7358 19.742ZM80.7477 14.1302L78.4644 7.92988C78.39 7.72692 78.3156 7.40219 78.2412 6.95568H78.2006C78.1329 7.36836 78.0551 7.69309 77.9672 7.92988L75.7042 14.1302H80.7477Z" fill="white"/>
<path d="M88.5921 19.742H86.8872V5.18994H88.5921V19.742Z" fill="white"/>
<path d="M10.7021 8.74038C11.1492 8.87078 11.5777 9.04775 11.9875 9.2713C12.3973 9.47621 12.7513 9.71838 13.0493 9.99781C13.366 10.2586 13.6082 10.5474 13.7758 10.864C13.9621 11.1807 14.0553 11.4974 14.0553 11.8141V20.0573L11.8198 18.3248C11.4845 18.6601 11.0468 18.9675 10.5065 19.2469C9.9663 19.5263 9.3795 19.7499 8.74613 19.9175C8.11275 20.0666 7.45144 20.1504 6.76218 20.169C6.09155 20.1877 5.44886 20.1131 4.83412 19.9455C4.21938 19.7778 3.66052 19.5077 3.15755 19.1351C2.65458 18.7626 2.26337 18.2689 1.98395 17.6542C1.66726 17.0022 1.5648 16.3502 1.67657 15.6982C1.80697 15.0462 2.07709 14.4594 2.48692 13.9378C2.91538 13.3975 3.46492 12.9598 4.13555 12.6244C4.82481 12.2705 5.56995 12.0749 6.37098 12.0376C7.19064 11.9818 8.03824 12.1122 8.91378 12.4288C9.80796 12.7269 10.6835 13.2578 11.5404 14.0216V11.842C11.5404 11.3018 11.2424 10.892 10.6462 10.6126C10.0688 10.3145 9.36087 10.24 8.52258 10.389C7.92647 10.4822 7.45144 10.566 7.0975 10.6405C6.74355 10.715 6.40824 10.8082 6.09155 10.9199C5.77486 11.0131 5.43024 11.1342 5.05766 11.2832C4.68509 11.4322 4.18212 11.6278 3.54875 11.87L2.934 10.4728C3.56738 10.212 4.19143 9.96055 4.80618 9.71838C5.34641 9.51347 5.91458 9.30855 6.51069 9.10364C7.12544 8.89872 7.6843 8.74038 8.18727 8.62861C8.22453 8.60998 8.26178 8.60067 8.29904 8.60067C8.35493 8.60067 8.4015 8.59135 8.43876 8.57272V7.76238H1.39714L0 5.30341H15.4245L16.8216 7.76238H10.7021V8.74038ZM11.5404 15.6982C10.8139 15.1393 10.0501 14.7295 9.2491 14.4687C8.44807 14.1892 7.70293 14.0588 7.01367 14.0775C6.32441 14.0961 5.72829 14.2638 5.22532 14.5804C4.72235 14.8785 4.40566 15.3256 4.27526 15.9217C4.12624 16.5737 4.16349 17.086 4.38704 17.4586C4.61058 17.8311 4.93658 18.0919 5.36504 18.241C5.81212 18.39 6.32441 18.4459 6.9019 18.4086C7.49801 18.3714 8.08481 18.2689 8.6623 18.1013C9.25841 17.9336 9.80796 17.7287 10.3109 17.4865C10.8325 17.2443 11.2424 16.9928 11.5404 16.732V15.6982Z" fill="#7A6CDD"/>
<path d="M25.2141 8.65655C25.6612 8.65655 26.1176 8.74038 26.5833 8.90804C27.049 9.05707 27.4775 9.28061 27.8687 9.57867C28.2785 9.87673 28.6231 10.2307 28.9026 10.6405C29.182 11.0317 29.3683 11.4695 29.4614 11.9538C29.6104 12.848 29.6104 13.6583 29.4614 14.3848C29.331 15.1114 29.1168 15.7634 28.8187 16.3408C28.5207 16.8997 28.1667 17.3934 27.7569 17.8218C27.3657 18.2503 26.9931 18.6042 26.6392 18.8837C26.2852 19.1445 25.9779 19.3494 25.7171 19.4984C25.4749 19.6474 25.3445 19.7219 25.3259 19.7219C24.4317 20.2808 23.5003 20.5043 22.5316 20.3926C21.5815 20.2994 20.6873 20.0293 19.8491 19.5822V25.8694L17.3342 23.4383V17.5983H17.3063V7.76238H15.4341L14.0369 5.30341H30.6071L32.0042 7.76238H19.8491V11.395C19.9608 11.3018 20.1937 11.1062 20.5476 10.8082C20.9016 10.5101 21.33 10.2027 21.833 9.88604C22.336 9.56935 22.8855 9.28993 23.4816 9.04775C24.0778 8.78695 24.6552 8.65655 25.2141 8.65655ZM19.8491 16.6203C20.4824 17.7007 21.1531 18.3714 21.861 18.6322C22.5875 18.8743 23.2767 18.865 23.9287 18.6042C24.5994 18.3248 25.1955 17.8591 25.7171 17.2071C26.2387 16.5364 26.6206 15.8286 26.8627 15.0834C27.1235 14.3383 27.198 13.6211 27.0863 12.9318C26.9745 12.2426 26.6206 11.721 26.0244 11.367C25.7636 11.218 25.4935 11.1155 25.2141 11.0596C24.9533 11.0038 24.5994 11.0503 24.1523 11.1994C23.7238 11.3298 23.165 11.5999 22.4757 12.0097C21.7864 12.4195 20.9109 13.025 19.8491 13.826V16.6203Z" fill="#7A6CDD"/>
<path d="M40.3609 8.65655C40.808 8.65655 41.2551 8.74038 41.7022 8.90804C42.1679 9.05707 42.5963 9.28061 42.9875 9.57867C43.3787 9.87673 43.714 10.2307 43.9935 10.6405C44.2915 11.0317 44.4964 11.4695 44.6082 11.9538C44.7386 12.5686 44.7759 13.1181 44.72 13.6024C44.6827 14.0682 44.5523 14.5804 44.3288 15.1393C44.1052 15.6982 43.7886 16.3595 43.3787 17.1233C42.9689 17.887 42.4659 18.8557 41.8698 20.0293C41.4414 19.9921 41.106 19.871 40.8639 19.6661C40.659 19.4798 40.5192 19.2003 40.4447 18.8278C40.3888 18.4552 40.5379 17.9336 40.8918 17.263C41.2271 16.611 41.4972 15.9776 41.7022 15.3628C41.9257 14.7481 42.0561 14.1799 42.0934 13.6583C42.1306 13.1367 42.0747 12.6803 41.9257 12.2891C41.7953 11.8793 41.5438 11.5719 41.1712 11.367C40.9104 11.218 40.6496 11.1062 40.3888 11.0317C40.1467 10.9572 39.8672 10.9479 39.5505 11.0038C39.2339 11.041 38.8706 11.1621 38.4608 11.367C38.0696 11.5533 37.6039 11.8514 37.0636 12.2612L34.9679 13.826V20.0293L32.4531 17.5983V7.76238H31.4192L30.022 5.30341H45.4465L46.8436 7.76238H34.9679V11.395C35.0611 11.3204 35.2846 11.1342 35.6385 10.8361C36.0111 10.538 36.4489 10.2307 36.9519 9.91398C37.4548 9.57867 38.0044 9.28993 38.6005 9.04775C39.1966 8.78695 39.7834 8.65655 40.3609 8.65655Z" fill="#7A6CDD"/>
<path d="M55.4817 8.74038C55.9288 8.87078 56.3573 9.04775 56.7671 9.2713C57.1769 9.47621 57.5309 9.71838 57.8289 9.99781C58.1456 10.2586 58.3878 10.5474 58.5554 10.864C58.7417 11.1807 58.8349 11.4974 58.8349 11.8141V20.0573L56.5994 18.3248C56.2641 18.6601 55.8263 18.9675 55.2861 19.2469C54.7459 19.5263 54.1591 19.7499 53.5257 19.9175C52.8923 20.0666 52.231 20.1504 51.5418 20.169C50.8711 20.1877 50.2284 20.1131 49.6137 19.9455C48.999 19.7778 48.4401 19.5077 47.9371 19.1351C47.4342 18.7626 47.043 18.2689 46.7635 17.6542C46.4468 17.0022 46.3444 16.3502 46.4562 15.6982C46.5866 15.0462 46.8567 14.4594 47.2665 13.9378C47.695 13.3975 48.2445 12.9598 48.9151 12.6244C49.6044 12.2705 50.3495 12.0749 51.1506 12.0376C51.9702 11.9818 52.8178 12.1122 53.6934 12.4288C54.5875 12.7269 55.4631 13.2578 56.32 14.0216V11.842C56.32 11.3018 56.0219 10.892 55.4258 10.6126C54.8483 10.3145 54.1404 10.24 53.3022 10.389C52.706 10.4822 52.231 10.566 51.8771 10.6405C51.5231 10.715 51.1878 10.8082 50.8711 10.9199C50.5545 11.0131 50.2098 11.1342 49.8372 11.2832C49.4647 11.4322 48.9617 11.6278 48.3283 11.87L47.7136 10.4728C48.347 10.212 48.971 9.96055 49.5858 9.71838C50.126 9.51347 50.6942 9.30855 51.2903 9.10364C51.905 8.89872 52.4639 8.74038 52.9669 8.62861C53.0041 8.60998 53.0414 8.60067 53.0786 8.60067C53.1345 8.60067 53.1811 8.59135 53.2183 8.57272V7.76238H46.1767L44.7796 5.30341H60.2041L61.6012 7.76238H55.4817V8.74038ZM56.32 15.6982C55.5935 15.1393 54.8297 14.7295 54.0287 14.4687C53.2276 14.1892 52.4825 14.0588 51.7933 14.0775C51.104 14.0961 50.5079 14.2638 50.0049 14.5804C49.5019 14.8785 49.1852 15.3256 49.0548 15.9217C48.9058 16.5737 48.9431 17.086 49.1666 17.4586C49.3902 17.8311 49.7162 18.0919 50.1446 18.241C50.5917 18.39 51.104 18.4459 51.6815 18.4086C52.2776 18.3714 52.8644 18.2689 53.4419 18.1013C54.038 17.9336 54.5875 17.7287 55.0905 17.4865C55.6121 17.2443 56.0219 16.9928 56.32 16.732V15.6982Z" fill="#7A6CDD"/>
</svg>
